<svg xmlns="http://www.w3.org/2000/svg" xmlns:xlink="http://www.w3.org/1999/xlink" width="584" zoomAndPan="magnify" viewBox="0 0 438 197.999996" height="264" preserveAspectRatio="xMidYMid meet" version="1.0"><defs><g/><clipPath id="d9c28fec40"><path d="M 18 50 L 79 50 L 79 90 L 18 90 Z M 18 50 " clip-rule="nonzero"/></clipPath><clipPath id="efd804748d"><path d="M 84.953125 57.648438 L 70.964844 98.839844 L 18.414062 80.996094 L 32.398438 39.804688 Z M 84.953125 57.648438 " clip-rule="nonzero"/></clipPath><clipPath id="4a9e6e8f05"><path d="M 84.953125 57.648438 L 70.964844 98.839844 L 18.414062 80.996094 L 32.398438 39.804688 Z M 84.953125 57.648438 " clip-rule="nonzero"/></clipPath><clipPath id="1a7533b477"><path d="M 40 53 L 77 53 L 77 87 L 40 87 Z M 40 53 " clip-rule="nonzero"/></clipPath><clipPath id="f82de9c7a1"><path d="M 84.953125 57.648438 L 70.964844 98.839844 L 18.414062 80.996094 L 32.398438 39.804688 Z M 84.953125 57.648438 " clip-rule="nonzero"/></clipPath><clipPath id="e2af791082"><path d="M 84.953125 57.648438 L 70.964844 98.839844 L 18.414062 80.996094 L 32.398438 39.804688 Z M 84.953125 57.648438 " clip-rule="nonzero"/></clipPath></defs><g fill="#694f3b" fill-opacity="1"><g transform="translate(32.044998, 154.730595)"><g><path d="M 70.382812 -60.023438 L 63.804688 -63.804688 L 63.804688 -88.472656 C 63.804688 -95.871094 61.832031 -101.296875 53.773438 -109.519531 C 49.664062 -113.796875 44.566406 -115.769531 38.644531 -115.769531 C 38.316406 -115.769531 30.585938 -115.769531 15.292969 -115.605469 C 12.167969 -115.605469 8.550781 -115.933594 8.058594 -111.988281 C 8.058594 -110.671875 7.894531 -108.699219 7.894531 -106.230469 L 7.894531 -63.804688 L 1.316406 -60.023438 C 0.492188 -59.527344 0 -58.707031 0 -57.71875 C 0 -56.570312 0.492188 -55.910156 1.316406 -55.417969 L 7.894531 -51.636719 L 7.894531 -10.195312 C 7.894531 -4.277344 7.894531 -2.300781 9.207031 -0.988281 C 9.703125 -0.492188 10.851562 0 12.496094 0 L 13.15625 0 C 42.921875 0 49.167969 2.796875 59.527344 -12.664062 C 62.324219 -17.101562 63.804688 -22.199219 63.804688 -28.121094 L 63.804688 -51.636719 L 70.382812 -55.417969 C 71.203125 -55.910156 71.699219 -56.570312 71.699219 -57.71875 C 71.699219 -58.707031 71.203125 -59.527344 70.382812 -60.023438 Z M 44.398438 -83.042969 L 44.398438 -28.449219 C 44.398438 -22.035156 36.671875 -17.761719 30.421875 -20.0625 C 27.296875 -21.378906 27.460938 -24.667969 27.460938 -28.613281 L 27.460938 -88.964844 C 27.296875 -95.050781 29.269531 -96.53125 35.519531 -96.035156 C 40.78125 -95.707031 43.742188 -92.910156 44.234375 -87.484375 C 44.398438 -86.664062 44.398438 -85.183594 44.398438 -83.042969 Z M 44.398438 -83.042969 "/></g></g></g><g fill="#694f3b" fill-opacity="1"><g transform="translate(110.314385, 154.730595)"><g><path d="M 63.640625 -31.082031 L 63.476562 -85.511719 C 63.476562 -94.226562 61.339844 -103.601562 54.429688 -110.015625 C 47.523438 -116.589844 39.300781 -118.402344 26.3125 -116.425781 C 24.171875 -116.097656 22.363281 -115.277344 20.390625 -113.796875 C 10.851562 -106.890625 6.25 -98.667969 6.578125 -88.964844 L 6.578125 -27.296875 C 6.578125 -22.035156 7.398438 -17.761719 9.375 -14.140625 C 19.898438 5.589844 47.195312 6.90625 60.1875 -13.976562 C 61.007812 -15.457031 61.667969 -16.773438 61.832031 -18.253906 C 63.148438 -24.996094 63.640625 -29.269531 63.640625 -31.082031 Z M 41.933594 -24.335938 C 38.972656 -17.761719 29.4375 -17.925781 26.804688 -24.667969 C 26.148438 -25.980469 25.980469 -28.449219 25.980469 -31.738281 L 25.980469 -85.347656 C 25.980469 -87.976562 25.980469 -89.621094 26.148438 -90.609375 C 27.296875 -98.996094 39.46875 -99.984375 42.097656 -91.925781 C 42.589844 -90.28125 42.921875 -88.472656 42.921875 -86.167969 L 42.921875 -30.585938 C 42.921875 -27.957031 42.589844 -25.816406 41.933594 -24.335938 Z M 41.933594 -24.335938 "/></g></g></g><g fill="#694f3b" fill-opacity="1"><g transform="translate(180.526631, 154.730595)"><g><path d="M 60.84375 -105.574219 C 55.746094 -112.152344 49.332031 -115.441406 41.769531 -115.605469 L 35.847656 -115.605469 C 20.882812 -115.769531 11.019531 -101.628906 11.019531 -89.292969 L 11.183594 -25.980469 C 11.183594 -22.035156 11.511719 -19.074219 12.332031 -17.101562 C 20.882812 2.632812 43.25 5.589844 56.242188 -5.097656 C 69.394531 -15.785156 66.269531 -22.859375 66.269531 -58.378906 C 66.269531 -62.652344 66.269531 -64.460938 64.957031 -65.777344 C 64.460938 -66.269531 63.476562 -66.765625 61.996094 -66.765625 C 60.515625 -66.929688 57.554688 -66.929688 53.117188 -66.929688 C 47.359375 -66.929688 43.742188 -66.929688 42.261719 -66.765625 C 39.632812 -66.601562 38.316406 -65.285156 38.152344 -62.816406 C 37.988281 -61.832031 37.988281 -58.378906 37.988281 -52.621094 C 37.988281 -49.664062 39.300781 -48.019531 41.933594 -47.6875 C 44.234375 -47.359375 45.714844 -46.210938 46.042969 -44.234375 C 47.359375 -38.316406 47.359375 -32.230469 46.210938 -25.816406 C 46.042969 -25.652344 45.878906 -25.160156 45.714844 -24.667969 C 41.769531 -17.429688 32.890625 -17.761719 30.421875 -25.816406 C 29.4375 -28.613281 29.105469 -31.738281 29.105469 -35.191406 L 29.105469 -81.234375 C 29.105469 -89.128906 31.246094 -95.378906 37 -96.199219 C 42.753906 -97.023438 46.703125 -91.597656 46.867188 -86.167969 C 47.359375 -74.65625 46.210938 -74.988281 50.648438 -74.65625 C 54.597656 -74.492188 58.378906 -74.492188 62.160156 -74.65625 C 67.09375 -74.988281 66.105469 -79.097656 66.105469 -83.867188 C 66.105469 -86.167969 66.105469 -87.8125 66.269531 -88.964844 C 66.601562 -94.886719 64.792969 -100.3125 60.84375 -105.574219 Z M 60.84375 -105.574219 "/></g></g></g><g fill="#694f3b" fill-opacity="1"><g transform="translate(258.138292, 154.730595)"><g><path d="M 60.84375 -105.574219 C 55.746094 -112.152344 49.332031 -115.441406 41.769531 -115.605469 L 35.847656 -115.605469 C 20.882812 -115.769531 11.019531 -101.628906 11.019531 -89.292969 L 11.183594 -25.980469 C 11.183594 -22.035156 11.511719 -19.074219 12.332031 -17.101562 C 20.882812 2.632812 43.25 5.589844 56.242188 -5.097656 C 69.394531 -15.785156 66.269531 -22.859375 66.269531 -58.378906 C 66.269531 -62.652344 66.269531 -64.460938 64.957031 -65.777344 C 64.460938 -66.269531 63.476562 -66.765625 61.996094 -66.765625 C 60.515625 -66.929688 57.554688 -66.929688 53.117188 -66.929688 C 47.359375 -66.929688 43.742188 -66.929688 42.261719 -66.765625 C 39.632812 -66.601562 38.316406 -65.285156 38.152344 -62.816406 C 37.988281 -61.832031 37.988281 -58.378906 37.988281 -52.621094 C 37.988281 -49.664062 39.300781 -48.019531 41.933594 -47.6875 C 44.234375 -47.359375 45.714844 -46.210938 46.042969 -44.234375 C 47.359375 -38.316406 47.359375 -32.230469 46.210938 -25.816406 C 46.042969 -25.652344 45.878906 -25.160156 45.714844 -24.667969 C 41.769531 -17.429688 32.890625 -17.761719 30.421875 -25.816406 C 29.4375 -28.613281 29.105469 -31.738281 29.105469 -35.191406 L 29.105469 -81.234375 C 29.105469 -89.128906 31.246094 -95.378906 37 -96.199219 C 42.753906 -97.023438 46.703125 -91.597656 46.867188 -86.167969 C 47.359375 -74.65625 46.210938 -74.988281 50.648438 -74.65625 C 54.597656 -74.492188 58.378906 -74.492188 62.160156 -74.65625 C 67.09375 -74.988281 66.105469 -79.097656 66.105469 -83.867188 C 66.105469 -86.167969 66.105469 -87.8125 66.269531 -88.964844 C 66.601562 -94.886719 64.792969 -100.3125 60.84375 -105.574219 Z M 60.84375 -105.574219 "/></g></g></g><g fill="#694f3b" fill-opacity="1"><g transform="translate(335.749953, 154.730595)"><g><path d="M 63.640625 -31.082031 L 63.476562 -85.511719 C 63.476562 -94.226562 61.339844 -103.601562 54.429688 -110.015625 C 47.523438 -116.589844 39.300781 -118.402344 26.3125 -116.425781 C 24.171875 -116.097656 22.363281 -115.277344 20.390625 -113.796875 C 10.851562 -106.890625 6.25 -98.667969 6.578125 -88.964844 L 6.578125 -27.296875 C 6.578125 -22.035156 7.398438 -17.761719 9.375 -14.140625 C 19.898438 5.589844 47.195312 6.90625 60.1875 -13.976562 C 61.007812 -15.457031 61.667969 -16.773438 61.832031 -18.253906 C 63.148438 -24.996094 63.640625 -29.269531 63.640625 -31.082031 Z M 41.933594 -24.335938 C 38.972656 -17.761719 29.4375 -17.925781 26.804688 -24.667969 C 26.148438 -25.980469 25.980469 -28.449219 25.980469 -31.738281 L 25.980469 -85.347656 C 25.980469 -87.976562 25.980469 -89.621094 26.148438 -90.609375 C 27.296875 -98.996094 39.46875 -99.984375 42.097656 -91.925781 C 42.589844 -90.28125 42.921875 -88.472656 42.921875 -86.167969 L 42.921875 -30.585938 C 42.921875 -27.957031 42.589844 -25.816406 41.933594 -24.335938 Z M 41.933594 -24.335938 "/></g></g></g><g clip-path="url(#d9c28fec40)"><g clip-path="url(#efd804748d)"><g clip-path="url(#4a9e6e8f05)"><path fill="#ff862f" d="M 47.089844 53.695312 C 48.320312 53.890625 49.738281 54.152344 50.984375 54.125 C 52.25 54.089844 53.515625 52.539062 54.585938 51.882812 C 56.335938 50.820312 58.320312 50.066406 60.359375 50.03125 C 62.398438 49.992188 64.507812 50.707031 65.898438 52.210938 C 66.808594 53.183594 67.371094 54.425781 68.324219 55.34375 C 69.894531 56.859375 72.269531 57.296875 73.828125 58.820312 C 75.984375 60.933594 75.917969 64.363281 77.015625 67.171875 C 77.40625 68.171875 77.945312 69.109375 78.304688 70.132812 C 79.34375 73.117188 78.472656 76.671875 76.164062 78.828125 C 75.175781 79.757812 73.976562 80.425781 73.027344 81.414062 C 71.867188 82.609375 71.183594 84.183594 70.148438 85.492188 C 67.4375 88.9375 62.214844 90.121094 58.273438 88.179688 C 57.441406 87.769531 56.660156 87.238281 55.78125 86.917969 C 53.589844 86.136719 51.1875 86.839844 48.855469 86.777344 C 44.832031 86.6875 41.222656 84.347656 37.304688 83.425781 C 34.328125 82.714844 31.226562 82.636719 28.175781 82.503906 C 22.089844 82.246094 18.972656 80.132812 18.800781 79.910156 L 25.882812 59.058594 C 26.253906 58.753906 26.664062 58.5 27.132812 58.34375 C 28.78125 57.792969 30.761719 58.441406 32.449219 58.480469 C 34.632812 58.539062 36.734375 59.042969 38.652344 57.933594 C 40.125 57.078125 40.929688 56.480469 42.296875 55.453125 C 43.691406 54.453125 45.40625 53.425781 47.089844 53.695312 Z M 47.089844 53.695312 " fill-opacity="1" fill-rule="nonzero"/></g></g></g><g clip-path="url(#1a7533b477)"><g clip-path="url(#f82de9c7a1)"><g clip-path="url(#e2af791082)"><path fill="#694f3b" d="M 62.734375 75.960938 C 61.925781 76.8125 60.933594 77.449219 59.941406 78.085938 C 57.257812 79.804688 54.570312 81.511719 51.890625 83.230469 C 51.078125 83.742188 50.234375 84.28125 49.285156 84.386719 C 47.875 84.546875 43.945312 83.941406 42.851562 80.707031 C 42.492188 79.65625 42.40625 78.539062 42.476562 77.414062 C 42.640625 75.050781 42.847656 72.664062 42.46875 70.332031 C 42.085938 67.953125 41.085938 65.703125 40.867188 63.3125 C 40.648438 60.917969 41.496094 58.15625 43.695312 57.203125 C 45.398438 56.457031 47.417969 57.027344 49.019531 57.964844 C 50.625 58.90625 51.988281 60.214844 53.617188 61.113281 C 55.660156 62.269531 58.011719 62.746094 60.183594 63.621094 C 65.398438 65.730469 66.898438 71.617188 62.734375 75.960938 Z M 75.199219 71.746094 C 74.386719 70.820312 73.265625 70.164062 72.046875 70.003906 C 70.828125 69.84375 69.53125 70.214844 68.65625 71.078125 C 67.796875 71.945312 67.402344 73.304688 67.785156 74.464844 C 68.113281 75.445312 68.9375 76.226562 69.882812 76.617188 C 70.824219 77.015625 71.902344 77.082031 72.925781 76.964844 C 73.640625 76.871094 74.375 76.691406 74.957031 76.277344 C 76.503906 75.167969 76.351562 73.054688 75.199219 71.746094 Z M 66.800781 80.261719 C 66.152344 79.824219 65.46875 79.417969 64.722656 79.222656 C 63.976562 79.027344 63.128906 79.0625 62.417969 79.492188 C 61.621094 79.964844 61.082031 80.835938 60.703125 81.738281 C 60.453125 82.339844 60.253906 83 60.265625 83.640625 C 60.285156 84.820312 61.046875 85.820312 62 86.28125 C 63.402344 86.964844 66.246094 86.808594 67.546875 85.511719 C 69.203125 83.835938 68.277344 81.238281 66.800781 80.261719 Z M 73.878906 61.839844 C 73.722656 61.242188 73.34375 60.753906 72.933594 60.359375 C 71.945312 59.421875 70.664062 58.859375 69.316406 58.761719 C 68.421875 58.703125 67.394531 58.898438 66.734375 59.679688 C 66.101562 60.417969 65.9375 61.542969 66.113281 62.496094 C 66.375 63.882812 67.285156 64.988281 68.429688 65.472656 C 69.574219 65.953125 70.949219 65.828125 72.160156 65.230469 C 73.28125 64.664062 74.230469 63.199219 73.878906 61.839844 Z M 62.5 55.359375 C 62.117188 54.578125 61.261719 54.125 60.433594 53.832031 C 59.496094 53.492188 58.480469 53.273438 57.492188 53.390625 C 56.503906 53.507812 55.511719 54.003906 54.980469 54.855469 C 54.394531 55.792969 54.421875 57.042969 54.964844 58.003906 C 55.507812 58.964844 56.507812 59.605469 57.578125 59.863281 C 58.65625 60.101562 59.789062 59.964844 60.824219 59.574219 C 61.292969 59.398438 61.75 59.171875 62.09375 58.8125 C 62.757812 58.085938 62.917969 56.21875 62.5 55.359375 Z M 62.5 55.359375 " fill-opacity="1" fill-rule="nonzero"/></g></g></g></svg>